<svg width="510" height="321" viewBox="0 0 510 321" fill="none" xmlns="http://www.w3.org/2000/svg">
<path d="M252.34 0L150.078 181.442H254.385L227.797 136.154C219.31 155.492 211.602 163.426 190.983 157.191L252.924 46.7483L317.203 156.315C310.746 157.483 305.981 158.47 301.426 157.775C296.542 157.031 291.944 154.378 287.109 148.718C274.297 125.396 266.674 112.428 252.632 89.4061C250.25 96.9852 246.972 101.543 243.867 106.645C240.762 111.746 242.463 115.592 243.867 119.208L276.591 174.722C278.988 178.648 279.805 180.273 282.726 181.15C285.648 182.026 359.569 181.442 359.569 181.442L252.34 0Z" fill="black"/>
<path d="M100.262 246.079C100.262 244.976 101.139 244.072 102.242 244.039L118.262 243.56C120.047 243.56 121.592 243.326 122.899 242.859C124.248 242.392 125.359 241.781 126.23 241.026C127.144 240.235 127.819 239.355 128.254 238.385C128.733 237.414 128.973 236.426 128.973 235.42C128.973 234.378 128.733 233.372 128.254 232.401C127.819 231.431 127.144 230.568 126.23 229.814C125.359 229.023 124.248 228.394 122.899 227.927C121.592 227.46 120.047 227.226 118.262 227.226H100.992C100.278 227.226 99.6986 226.647 99.6986 225.933C99.6986 225.218 100.278 224.639 100.992 224.639H118.262C120.613 224.639 122.659 224.944 124.401 225.555C126.186 226.166 127.666 226.975 128.842 227.981C130.018 228.987 130.888 230.137 131.455 231.431C132.064 232.725 132.369 234.036 132.369 235.366C132.369 236.552 132.129 237.72 131.65 238.87C131.172 240.02 130.475 241.08 129.56 242.05C128.646 242.985 127.492 243.793 126.099 244.476C124.706 245.159 123.095 245.644 121.266 245.931L134.98 260.011C135.917 260.973 135.235 262.588 133.892 262.588C133.479 262.588 133.083 262.42 132.797 262.121L117.412 246.093H103.762L103.491 261.003C103.475 261.883 102.757 262.588 101.877 262.588C100.985 262.588 100.262 261.865 100.262 260.974V246.079Z" fill="black"/>
<path d="M212.264 226.356C212.264 225.229 213.177 224.315 214.305 224.315H228.703C231.141 224.315 233.253 224.603 235.038 225.178C236.867 225.753 238.369 226.508 239.545 227.442C240.764 228.34 241.678 229.383 242.288 230.568C242.897 231.754 243.202 232.976 243.202 234.234C243.202 235.743 242.767 237.199 241.896 238.6C241.069 240.002 239.741 241.17 237.912 242.104C239.523 242.464 240.916 242.985 242.092 243.667C243.311 244.314 244.312 245.069 245.096 245.931C245.88 246.794 246.468 247.728 246.86 248.735C247.251 249.741 247.447 250.765 247.447 251.807C247.447 253.101 247.143 254.359 246.533 255.58C245.923 256.802 245.009 257.898 243.79 258.869C242.614 259.803 241.112 260.576 239.283 261.187C237.498 261.762 235.386 262.049 232.948 262.049H214.305C213.177 262.049 212.264 261.135 212.264 260.008V226.356ZM215.445 241.619H228.703C230.532 241.619 232.143 241.421 233.536 241.026C234.929 240.595 236.083 240.038 236.997 239.355C237.955 238.636 238.652 237.846 239.087 236.983C239.566 236.085 239.806 235.168 239.806 234.234C239.806 233.3 239.566 232.401 239.087 231.539C238.652 230.676 237.955 229.904 236.997 229.221C236.083 228.502 234.929 227.945 233.536 227.55C232.143 227.119 230.532 226.903 228.703 226.903H215.445V241.619ZM215.445 259.462H232.948C234.82 259.462 236.453 259.246 237.847 258.815C239.24 258.384 240.394 257.809 241.308 257.09C242.222 256.371 242.897 255.563 243.333 254.664C243.812 253.766 244.051 252.831 244.051 251.861C244.051 250.927 243.812 250.01 243.333 249.112C242.854 248.178 242.135 247.369 241.177 246.686C240.263 245.967 239.109 245.392 237.716 244.961C236.366 244.494 234.777 244.242 232.948 244.206H215.445V259.462Z" fill="black"/>
<path d="M294.357 226.445C294.357 227.144 293.79 227.711 293.09 227.711H265.319C264.619 227.711 264.052 227.144 264.052 226.445C264.052 225.745 264.619 225.178 265.319 225.178H293.09C293.79 225.178 294.357 225.745 294.357 226.445ZM294.945 243.91C294.945 244.58 294.402 245.123 293.732 245.123H265.853C265.183 245.123 264.64 244.58 264.64 243.91C264.64 243.24 265.183 242.697 265.853 242.697H293.732C294.402 242.697 294.945 243.24 294.945 243.91ZM294.879 261.348C294.879 262.033 294.324 262.588 293.64 262.588H265.88C265.195 262.588 264.64 262.033 264.64 261.348C264.64 260.664 265.195 260.109 265.88 260.109H293.64C294.324 260.109 294.879 260.664 294.879 261.348Z" fill="black"/>
<path d="M340.636 260.055C341.335 260.055 341.902 260.622 341.902 261.321C341.902 262.021 341.335 262.588 340.636 262.588H313.165V226.455C313.165 225.571 313.882 224.854 314.765 224.854C315.649 224.854 316.366 225.571 316.366 226.455V260.055H340.636Z" fill="black"/>
<path d="M384.964 260.055C385.663 260.055 386.23 260.622 386.23 261.321C386.23 262.021 385.663 262.588 384.964 262.588H357.493V226.455C357.493 225.571 358.21 224.854 359.093 224.854C359.977 224.854 360.693 225.571 360.693 226.455V260.055H384.964Z" fill="black"/>
<path d="M401.189 226.476C401.177 225.584 401.897 224.854 402.789 224.854C403.665 224.854 404.377 225.558 404.389 226.433L404.668 247.603C404.668 249.759 405.103 251.645 405.974 253.263C406.888 254.844 408.086 256.173 409.566 257.252C411.047 258.33 412.701 259.138 414.53 259.677C416.402 260.216 418.318 260.486 420.277 260.486C422.237 260.486 424.152 260.216 426.025 259.677C427.897 259.138 429.573 258.33 431.054 257.252C432.534 256.173 433.71 254.844 434.581 253.263C435.495 251.645 435.952 249.759 435.952 247.603L435.673 226.442C435.662 225.569 436.367 224.854 437.241 224.854C438.098 224.854 438.797 225.544 438.808 226.401L439.087 247.603C439.087 250.226 438.543 252.526 437.454 254.502C436.409 256.443 434.994 258.078 433.209 259.408C431.467 260.701 429.465 261.672 427.2 262.319C424.936 262.966 422.629 263.289 420.277 263.289C417.97 263.289 415.684 262.948 413.42 262.265C411.199 261.582 409.196 260.594 407.411 259.3C405.669 257.97 404.254 256.335 403.166 254.395C402.077 252.418 401.511 250.154 401.467 247.603L401.189 226.476Z" fill="black"/>
<path d="M461.837 226.051C461.99 225.353 462.608 224.854 463.323 224.854C463.75 224.854 464.156 225.033 464.444 225.347L480.713 243.084C481.251 243.671 482.176 243.673 482.716 243.087L499.07 225.345C499.358 225.032 499.764 224.854 500.189 224.854C500.905 224.854 501.525 225.353 501.677 226.053L509.241 260.735C509.449 261.687 508.723 262.588 507.748 262.588C507.027 262.588 506.403 262.083 506.254 261.377L499.756 230.73L483.004 248.593C482.68 248.938 482.228 249.134 481.755 249.134C481.271 249.134 480.809 248.929 480.485 248.57L464.357 230.73L457.279 261.395C457.118 262.094 456.496 262.588 455.78 262.588C454.798 262.588 454.067 261.681 454.276 260.721L461.837 226.051Z" fill="black"/>
<path d="M17.6726 224.315H2.041C0.913785 224.315 0 225.229 0 226.356V238.962C0 239.928 0.783484 240.712 1.74996 240.712C2.71644 240.712 3.49992 239.928 3.49992 238.962V226.903H17.6726C19.5013 226.903 21.0906 227.172 22.4404 227.711C23.7901 228.215 24.9004 228.897 25.7713 229.76C26.6856 230.622 27.3605 231.593 27.7959 232.671C28.2749 233.749 28.5144 234.863 28.5144 236.013C28.5144 237.163 28.2749 238.295 27.7959 239.409C27.3605 240.487 26.6856 241.457 25.7713 242.32C24.9004 243.182 23.7901 243.883 22.4404 244.422C21.0906 244.925 19.5013 245.177 17.6726 245.177H3.49992H1.36067C0.609192 245.177 0 245.786 0 246.537V260.972C0 261.865 0.723621 262.588 1.61625 262.588C2.4962 262.588 3.21446 261.884 3.23218 261.004L3.49992 247.71H17.6726C20.0674 247.71 22.1573 247.387 23.9425 246.74C25.7277 246.057 27.2081 245.177 28.3837 244.099C29.6029 242.985 30.4955 241.727 31.0615 240.325C31.6711 238.924 31.9759 237.486 31.9759 236.013C31.9759 234.539 31.6711 233.12 31.0615 231.754C30.4955 230.353 29.6029 229.095 28.3837 227.981C27.2081 226.867 25.7277 225.986 23.9425 225.34C22.1573 224.657 20.0674 224.315 17.6726 224.315Z" fill="black"/>
<path d="M60.5928 224.994C60.8351 224.574 61.2832 224.315 61.7682 224.315C62.2531 224.315 62.7012 224.574 62.9435 224.994L83.3536 260.38C83.9198 261.362 83.2113 262.588 82.078 262.588C81.5191 262.588 81.0084 262.272 80.7595 261.772L77.0895 254.395H53.6126C52.9349 254.395 52.3856 253.845 52.3856 253.168C52.3856 252.49 52.934 251.941 53.6112 251.941L75.5874 251.915L61.7682 229.059L48.5483 251.915L47.0461 254.395L42.8015 261.833C42.535 262.3 42.0387 262.588 41.5011 262.588C40.3488 262.588 39.6284 261.341 40.2041 260.343L60.5928 224.994Z" fill="black"/>
<path d="M172.21 224.994C172.452 224.574 172.9 224.315 173.385 224.315C173.87 224.315 174.318 224.574 174.56 224.994L194.971 260.38C195.537 261.362 194.828 262.588 193.695 262.588C193.136 262.588 192.625 262.272 192.376 261.772L188.706 254.395H165.187C164.509 254.395 163.96 253.845 163.96 253.168C163.96 252.49 164.508 251.941 165.186 251.941L187.204 251.915L173.685 228.52L160.165 251.915L158.663 254.395L154.418 261.833C154.152 262.3 153.656 262.588 153.118 262.588C151.966 262.588 151.245 261.341 151.821 260.343L172.21 224.994Z" fill="black"/>
<path d="M24.2177 300.853H25.8188L33.8245 320.121H31.8163L29.3196 314.096H20.6626L18.193 320.121H16.1577L24.2177 300.853ZM28.8854 312.604L25.0047 303.078L21.0697 312.604H28.8854ZM46.6644 318.683C47.6595 318.683 48.4917 318.52 49.1611 318.194C49.8305 317.851 50.3552 317.398 50.7351 316.837C51.1151 316.258 51.3865 315.616 51.5493 314.911C51.7121 314.205 51.7935 313.49 51.7935 312.767V305.249H53.4761V312.767C53.4761 313.762 53.3494 314.712 53.0962 315.616C52.861 316.503 52.472 317.299 51.9292 318.004C51.4046 318.692 50.708 319.235 49.8396 319.633C48.9893 320.031 47.9399 320.23 46.6916 320.23C45.4251 320.23 44.3487 320.022 43.4622 319.605C42.5937 319.189 41.8972 318.629 41.3725 317.923C40.8479 317.217 40.4679 316.421 40.2327 315.535C39.9975 314.63 39.8799 313.707 39.8799 312.767V305.249H41.5625V312.767C41.5625 313.508 41.6439 314.241 41.8067 314.965C41.9877 315.67 42.2681 316.304 42.648 316.865C43.046 317.425 43.5707 317.869 44.222 318.194C44.8733 318.52 45.6875 318.683 46.6644 318.683ZM73.4047 306.769H67.6786V320.121H65.9961V306.769H60.2157V305.249H73.4047V306.769ZM86.3697 320.23C85.2299 320.23 84.1896 320.022 83.2488 319.605C82.3262 319.171 81.5211 318.601 80.8336 317.896C80.1642 317.172 79.6485 316.367 79.2867 315.48C78.9249 314.576 78.7439 313.644 78.7439 312.685C78.7439 311.69 78.9339 310.749 79.3138 309.863C79.6938 308.958 80.2275 308.153 80.915 307.448C81.6025 306.742 82.4076 306.19 83.3303 305.792C84.271 305.376 85.2932 305.168 86.3969 305.168C87.5186 305.168 88.5408 305.385 89.4635 305.819C90.4042 306.254 91.2093 306.833 91.8787 307.556C92.5481 308.28 93.0638 309.094 93.4256 309.999C93.7874 310.885 93.9684 311.79 93.9684 312.712C93.9684 313.707 93.7784 314.657 93.3985 315.562C93.0185 316.467 92.4848 317.272 91.7973 317.977C91.1279 318.665 90.3228 319.216 89.382 319.633C88.4593 320.031 87.4552 320.23 86.3697 320.23ZM80.4536 312.685C80.4536 313.463 80.5893 314.214 80.8607 314.938C81.1502 315.643 81.5572 316.286 82.0819 316.865C82.6066 317.425 83.2308 317.869 83.9544 318.194C84.6962 318.52 85.5013 318.683 86.3697 318.683C87.2743 318.683 88.0885 318.511 88.8121 318.167C89.5358 317.823 90.151 317.362 90.6575 316.783C91.1641 316.204 91.5531 315.562 91.8245 314.856C92.1139 314.151 92.2587 313.427 92.2587 312.685C92.2587 311.907 92.1139 311.166 91.8245 310.46C91.535 309.736 91.1279 309.094 90.6033 308.533C90.0786 307.972 89.4544 307.529 88.7307 307.203C88.007 306.878 87.22 306.715 86.3697 306.715C85.4651 306.715 84.6419 306.887 83.9002 307.231C83.1765 307.556 82.5523 308.008 82.0276 308.587C81.5211 309.166 81.1321 309.809 80.8607 310.514C80.5893 311.22 80.4536 311.943 80.4536 312.685ZM115.826 320.121V308.316L110.018 317.407H109.041L103.207 308.316V320.121H101.524V305.249H103.288L109.53 315.128L115.771 305.249H117.535V320.121H115.826ZM124.315 320.121L131.1 305.249H132.511L139.241 320.121H137.45L135.388 315.643H128.196L126.161 320.121H124.315ZM131.806 307.366L128.603 314.151H134.954L131.806 307.366ZM156.128 306.769H150.402V320.121H148.719V306.769H142.939V305.249H156.128V306.769ZM174.046 318.601V320.121H163.109V305.249H173.829V306.769H164.792V311.844H172.689V313.255H164.792V318.601H174.046ZM181.597 320.121V305.249H187.133C188.852 305.249 190.29 305.584 191.448 306.254C192.606 306.923 193.474 307.819 194.053 308.94C194.632 310.044 194.922 311.283 194.922 312.658C194.922 314.16 194.596 315.471 193.945 316.593C193.312 317.715 192.416 318.583 191.258 319.198C190.1 319.814 188.725 320.121 187.133 320.121H181.597ZM193.185 312.658C193.185 311.5 192.95 310.487 192.479 309.619C192.009 308.732 191.322 308.036 190.417 307.529C189.53 307.022 188.436 306.769 187.133 306.769H183.28V318.601H187.133C188.454 318.601 189.567 318.348 190.471 317.841C191.376 317.317 192.054 316.602 192.507 315.698C192.959 314.793 193.185 313.78 193.185 312.658ZM218.769 300.853H220.37L228.376 320.121H226.367L223.871 314.096H215.214L212.744 320.121H210.709L218.769 300.853ZM223.437 312.604L219.556 303.078L215.621 312.604H223.437ZM235.073 320.121V305.249H236.755V318.601H245.738V320.121H235.073ZM252.58 320.121V305.249H259.283C260.224 305.249 261.065 305.485 261.807 305.955C262.549 306.425 263.119 307.022 263.517 307.746C263.933 308.452 264.141 309.194 264.141 309.971C264.141 310.786 263.942 311.555 263.544 312.278C263.164 313.002 262.621 313.59 261.915 314.042C261.228 314.494 260.405 314.721 259.446 314.721H254.263V320.121H252.58ZM254.263 313.201H259.365C259.998 313.201 260.541 313.056 260.993 312.767C261.445 312.459 261.798 312.061 262.051 311.573C262.304 311.084 262.431 310.559 262.431 309.999C262.431 309.383 262.286 308.841 261.997 308.37C261.707 307.882 261.318 307.493 260.83 307.203C260.341 306.914 259.799 306.769 259.202 306.769H254.263V313.201ZM284.222 305.249V320.121H282.54V313.282H273.068V320.121H271.386V305.249H273.068V311.735H282.54V305.249H284.222ZM291.024 320.121L297.808 305.249H299.219L305.949 320.121H304.158L302.096 315.643H294.904L292.869 320.121H291.024ZM298.514 307.366L295.311 314.151H301.662L298.514 307.366ZM328.238 300.853H329.839L337.845 320.121H335.837L333.34 314.096H324.683L322.213 320.121H320.178L328.238 300.853ZM332.906 312.604L329.025 303.078L325.09 312.604H332.906ZM344.542 320.121V305.249H346.224V318.601H355.207V320.121H344.542ZM367.951 320.23C366.866 320.23 365.862 320.022 364.939 319.605C364.016 319.171 363.211 318.592 362.524 317.869C361.854 317.145 361.33 316.331 360.95 315.426C360.588 314.522 360.407 313.59 360.407 312.631C360.407 311.636 360.588 310.695 360.95 309.809C361.33 308.904 361.854 308.108 362.524 307.42C363.193 306.715 363.98 306.163 364.885 305.765C365.808 305.367 366.812 305.168 367.897 305.168C369.471 305.168 370.756 305.467 371.751 306.064C372.764 306.661 373.533 307.439 374.057 308.397L372.728 309.293C372.239 308.388 371.561 307.728 370.692 307.312C369.842 306.896 368.892 306.688 367.843 306.688C366.956 306.688 366.16 306.86 365.455 307.203C364.749 307.529 364.143 307.981 363.636 308.56C363.148 309.121 362.768 309.763 362.497 310.487C362.243 311.193 362.117 311.925 362.117 312.685C362.117 313.499 362.261 314.268 362.551 314.992C362.859 315.716 363.284 316.358 363.826 316.919C364.369 317.462 365.002 317.896 365.726 318.221C366.45 318.529 367.228 318.683 368.06 318.683C369.019 318.683 369.933 318.466 370.801 318.031C371.687 317.597 372.52 316.919 373.298 315.996V317.787C372.538 318.601 371.706 319.216 370.801 319.633C369.914 320.031 368.965 320.23 367.951 320.23ZM373.053 314.069H369.498V312.767H374.519V320.121H373.053V314.069ZM388.906 320.23C387.766 320.23 386.726 320.022 385.785 319.605C384.862 319.171 384.057 318.601 383.37 317.896C382.7 317.172 382.185 316.367 381.823 315.48C381.461 314.576 381.28 313.644 381.28 312.685C381.28 311.69 381.47 310.749 381.85 309.863C382.23 308.958 382.764 308.153 383.451 307.448C384.139 306.742 384.944 306.19 385.866 305.792C386.807 305.376 387.829 305.168 388.933 305.168C390.055 305.168 391.077 305.385 392 305.819C392.94 306.254 393.745 306.833 394.415 307.556C395.084 308.28 395.6 309.094 395.962 309.999C396.324 310.885 396.504 311.79 396.504 312.712C396.504 313.707 396.314 314.657 395.935 315.562C395.555 316.467 395.021 317.272 394.333 317.977C393.664 318.665 392.859 319.216 391.918 319.633C390.995 320.031 389.991 320.23 388.906 320.23ZM382.99 312.685C382.99 313.463 383.125 314.214 383.397 314.938C383.686 315.643 384.093 316.286 384.618 316.865C385.143 317.425 385.767 317.869 386.491 318.194C387.232 318.52 388.037 318.683 388.906 318.683C389.81 318.683 390.625 318.511 391.348 318.167C392.072 317.823 392.687 317.362 393.194 316.783C393.7 316.204 394.089 315.562 394.361 314.856C394.65 314.151 394.795 313.427 394.795 312.685C394.795 311.907 394.65 311.166 394.361 310.46C394.071 309.736 393.664 309.094 393.139 308.533C392.615 307.972 391.99 307.529 391.267 307.203C390.543 306.878 389.756 306.715 388.906 306.715C388.001 306.715 387.178 306.887 386.436 307.231C385.713 307.556 385.088 308.008 384.564 308.587C384.057 309.166 383.668 309.809 383.397 310.514C383.125 311.22 382.99 311.943 382.99 312.685ZM404.06 320.121V305.249H410.926C411.867 305.249 412.699 305.485 413.423 305.955C414.164 306.425 414.743 307.022 415.16 307.746C415.576 308.452 415.784 309.194 415.784 309.971C415.784 310.677 415.63 311.337 415.322 311.953C415.033 312.568 414.617 313.092 414.074 313.527C413.549 313.961 412.925 314.25 412.201 314.395L416.164 320.121H414.21L410.465 314.721H405.743V320.121H404.06ZM405.743 313.201H410.98C411.595 313.201 412.129 313.056 412.581 312.767C413.052 312.459 413.414 312.061 413.667 311.573C413.92 311.066 414.047 310.532 414.047 309.971C414.047 309.393 413.902 308.868 413.613 308.397C413.341 307.909 412.961 307.52 412.473 307.231C411.984 306.923 411.433 306.769 410.817 306.769H405.743V313.201ZM423.608 320.121V305.277H425.29V320.121H423.608ZM445.44 306.769H439.714V320.121H438.031V306.769H432.251V305.249H445.44V306.769ZM465.257 305.249V320.121H463.575V313.282H454.103V320.121H452.421V305.249H454.103V311.735H463.575V305.249H465.257ZM488.179 320.121V308.316L482.371 317.407H481.394L475.559 308.316V320.121H473.877V305.249H475.641L481.883 315.128L488.124 305.249H489.888V320.121H488.179Z" fill="black"/>
<rect x="20.3535" y="278.255" width="468.131" height="1.86654" fill="black"/>
</svg>
